<svg xmlns="http://www.w3.org/2000/svg" width="36" height="36" viewBox="0 0 36 36" fill="none">
  <g clip-path="url(#clip0_82_89)">
    <path d="M24.9608 2C25.387 2.00006 25.7984 2.15654 26.1169 2.43978C26.4355 2.72302 26.639 3.11331 26.6888 3.53662L26.701 3.74022V5.48045H30.1815C31.0595 5.48017 31.9053 5.8118 32.5491 6.40885C33.193 7.0059 33.5873 7.82426 33.6532 8.69986L33.6619 8.96089V29.8436C33.6622 30.7216 33.3306 31.5674 32.7335 32.2112C32.1364 32.8551 31.3181 33.2495 30.4425 33.3153L30.1815 33.324H5.81834C4.94026 33.3243 4.09453 32.9927 3.45068 32.3956C2.80683 31.7986 2.41245 30.9802 2.34659 30.1046L2.33789 29.8436V8.96089C2.33761 8.08282 2.66924 7.23708 3.26629 6.59324C3.86335 5.94938 4.6817 5.555 5.5573 5.48915L5.81834 5.48045H9.29878V3.74022C9.29927 3.29668 9.46911 2.87006 9.7736 2.54753C10.0781 2.225 10.4942 2.03092 10.937 2.00492C11.3798 1.97893 11.8158 2.12299 12.1559 2.40767C12.4961 2.69236 12.7147 3.09617 12.767 3.53662L12.7792 3.74022V5.48045H23.2206V3.74022C23.2206 3.27869 23.4039 2.83605 23.7303 2.5097C24.0566 2.18334 24.4993 2 24.9608 2ZM30.1815 17.662H5.81834V29.8436H30.1815V17.662ZM30.1815 8.96089H5.81834V14.1816H30.1815V8.96089Z" fill="white"/>
  </g>
  <defs>
    <clipPath id="clip0_82_89">
      <rect width="36" height="36" fill="white"/>
    </clipPath>
  </defs>
</svg>