<svg xmlns="http://www.w3.org/2000/svg" width="14" height="14" viewBox="0 0 14 14" fill="none">
  <path d="M4.08337 5.63912C4.08337 5.22651 4.24728 4.8308 4.53904 4.53904C4.8308 4.24728 5.22651 4.08337 5.63912 4.08337H10.6943C10.8986 4.08337 11.1009 4.12361 11.2897 4.2018C11.4784 4.27998 11.6499 4.39458 11.7944 4.53904C11.9388 4.68351 12.0534 4.85501 12.1316 5.04376C12.2098 5.23252 12.25 5.43482 12.25 5.63912V10.6943C12.25 10.8986 12.2098 11.1009 12.1316 11.2897C12.0534 11.4784 11.9388 11.6499 11.7944 11.7944C11.6499 11.9388 11.4784 12.0534 11.2897 12.1316C11.1009 12.2098 10.8986 12.25 10.6943 12.25H5.63912C5.43482 12.25 5.23252 12.2098 5.04376 12.1316C4.85501 12.0534 4.68351 11.9388 4.53904 11.7944C4.39458 11.6499 4.27998 11.4784 4.2018 11.2897C4.12361 11.1009 4.08337 10.8986 4.08337 10.6943V5.63912Z" stroke="#C9DDFF" strokeWidth="1.2" strokeLinecap="round" strokeLinejoin="round"/>
  <path d="M2.34033 9.76325C2.16145 9.66127 2.01266 9.51387 1.909 9.33596C1.80535 9.15804 1.7505 8.95591 1.75 8.75V2.91667C1.75 2.275 2.275 1.75 2.91667 1.75H8.75C9.1875 1.75 9.4255 1.97458 9.625 2.33333" stroke="#C9DDFF" strokeWidth="1.2" strokeLinecap="round" strokeLinejoin="round"/>
</svg>